<svg width="34" height="27" viewBox="0 0 34 27" fill="none" xmlns="http://www.w3.org/2000/svg">
<g id="Group 1597880768">
<path id="Vector" d="M16.5489 25.1163C16.1642 25.5581 15.5872 26 15.0103 26C14.3051 26 13.7922 25.3688 13.4076 24.8007C12.5742 23.5382 11.869 22.1496 11.3562 20.6977C11.0997 20.0034 10.9074 19.1828 10.2663 18.8041C9.68937 18.4253 8.92008 18.5516 8.2149 18.6147C6.67633 18.741 5.07365 18.6147 3.59918 18.1097C2.82989 17.8572 1.9965 17.6048 1.41953 17.0367C0.842565 16.4686 0.393814 15.7111 0.522028 14.8905C0.586136 14.1962 1.09899 13.5649 1.61185 12.9968C3.34275 11.1663 5.5865 9.77762 8.08669 9.02015C8.59955 8.83079 9.17651 8.70454 9.56116 8.26269C9.88169 7.88396 10.0099 7.4421 10.074 7.00025C10.3304 5.92717 10.5869 4.79097 10.8433 3.7179C11.0997 2.77107 11.4203 1.63487 12.3178 1.19301C13.3435 0.688037 14.5615 1.25614 15.3949 1.95048C17.7669 3.78102 19.2414 6.55839 19.9465 9.46201C20.9723 13.6281 20.5876 18.0466 18.6644 21.8971C16.7412 25.7475 17.3822 24.1063 16.5489 25.0532V25.1163Z" fill="url(#paint0_linear_25201_39547)" stroke="black" stroke-linecap="round" stroke-linejoin="round"/>
<path id="Vector_2" d="M8.58863 14.5164C8.14911 13.7997 9.46767 12.5255 9.8444 12.2069C10.5979 11.5698 11.4769 11.1716 12.3559 11.092C13.1094 10.9327 13.9257 11.0123 14.6791 11.092C15.4326 11.1716 15.4326 11.2512 15.8093 11.3309C16.1861 11.4105 16.2488 11.3309 16.3744 11.5698C16.5 11.8087 16.4372 12.2865 16.5 12.5255C14.428 14.5164 11.7281 15.3925 9.15373 14.835C8.96536 14.835 8.777 14.7553 8.65142 14.5961C8.65142 14.5961 8.65142 14.5961 8.58863 14.5164Z" fill="white" stroke="black" stroke-linecap="round" stroke-linejoin="round"/>
<path id="Vector_3" d="M12.9949 12.9124C13.3046 12.5418 13.5524 11.8006 13.4904 11.0593C13.1188 11.0593 11.6322 10.6887 11.5083 11.8006C11.3844 12.9124 12.6852 13.1595 12.9949 12.9124Z" fill="black" stroke="black" stroke-linecap="round" stroke-linejoin="round"/>
<path id="Vector_4" d="M17.3199 15.3737C17.7536 14.7206 17.9395 14.0022 18.1255 13.2838C18.4973 11.9123 18.993 10.4755 19.9845 9.56118C21.0379 8.58153 22.4632 8.3203 23.8265 8.12437C25.4377 7.92844 27.1108 7.92844 28.7219 8.38561C30.3331 8.84277 31.8203 9.75711 32.6879 11.1939C33.5554 12.6307 33.8033 14.59 33.0597 16.0922C32.564 17.0718 31.6964 17.7902 30.7669 18.2474C29.8374 18.7045 28.7839 18.9005 27.7305 18.9658C25.0658 19.1617 22.2773 18.5086 19.9225 17.2024C19.3028 17.6596 18.5592 17.9861 17.8776 18.2474C17.1959 18.5086 16.3284 18.8352 15.8326 18.5086C14.6553 17.6596 16.9481 15.9615 17.3818 15.3737H17.3199Z" fill="white" stroke="black" stroke-linecap="round" stroke-linejoin="round"/>
<path id="Vector_5" d="M20.5 15C20.7109 14.3509 20.8516 13.7019 21.1328 13.1826C21.4141 12.6634 21.8359 12.4038 22.1875 12.5336C22.75 12.7932 23.0313 14.2211 23.6641 14.4808C24.1563 14.7404 24.6484 13.9615 25.0703 13.3124C25.4922 12.6634 25.9141 11.8845 26.4766 12.0143C27.1094 12.2739 27.4609 13.7019 28.0938 14.2211C28.6563 14.6106 29.3594 13.9615 29.5 12.923" stroke="black" stroke-linecap="round" stroke-linejoin="round"/>
</g>
<defs>
<linearGradient id="paint0_linear_25201_39547" x1="1.18723" y1="-4.76728" x2="13.7856" y2="32.0895" gradientUnits="userSpaceOnUse">
<stop stop-color="#00FFFF"/>
<stop offset="0.685504" stop-color="#4E5EB3"/>
</linearGradient>
</defs>
</svg>
