<svg width="33" height="32" viewBox="0 0 33 32" fill="none" xmlns="http://www.w3.org/2000/svg">
<g id="uuid-5630444a-7df9-4420-89f5-fad194110165" clip-path="url(#clip0_25201_21669)">
<g id="Vector">
<path d="M32.1831 24.5282C32.1831 24.2846 32.1831 24.0409 32.1831 23.716C32.1831 21.7668 32.1831 19.8176 32.1831 17.9495C32.1831 16.8125 32.1831 15.2693 30.9579 14.7008C30.4678 14.4572 29.9777 14.4572 29.4876 14.3759C27.1188 14.2135 24.8317 14.1323 22.4628 14.2135C20.094 14.2947 20.1757 14.2947 19.0322 14.3759C17.8886 14.4572 17.8886 14.5384 17.3168 14.5384C16.745 14.5384 16.5 14.5384 16.1732 14.782C15.6831 15.1069 15.5198 15.7567 15.5198 16.3252C15.5198 17.8683 15.5198 19.3303 15.5198 20.8734C15.5198 22.4165 15.5198 23.6348 16.2549 24.6094C16.745 25.2592 17.4802 25.5841 18.2153 25.7465C19.0322 25.9089 19.9307 25.7465 20.7475 25.7465C22.4628 25.7465 24.0965 25.4216 25.4034 26.8836C26.7104 28.3455 26.3836 28.3455 26.8737 29.0764C27.3638 29.8074 27.9356 30.5384 28.6708 30.8632C28.9975 31.0257 29.3242 31.1069 29.651 31.0257C29.9777 30.9445 30.3044 30.782 30.4678 30.4572C30.7128 30.0511 30.4678 29.5638 30.3044 29.0764C30.0594 28.5079 29.8143 27.9394 29.5693 27.2896C29.4876 27.046 29.4059 26.8023 29.4876 26.5587C29.651 26.0714 30.3861 26.1526 30.7945 26.0714C31.2029 25.9902 31.7747 25.7465 31.9381 25.178C32.0198 24.9343 32.1015 24.6907 32.1015 24.3658L32.1831 24.5282Z" fill="url(#paint0_linear_25201_21669)"/>
<path d="M32.1831 24.5282C32.1831 24.2846 32.1831 24.0409 32.1831 23.716C32.1831 21.7668 32.1831 19.8176 32.1831 17.9495C32.1831 16.8125 32.1831 15.2693 30.9579 14.7008C30.4678 14.4572 29.9777 14.4572 29.4876 14.3759C27.1188 14.2135 24.8317 14.1323 22.4628 14.2135C20.094 14.2947 20.1757 14.2947 19.0322 14.3759C17.8886 14.4572 17.8886 14.5384 17.3168 14.5384C16.745 14.5384 16.5 14.5384 16.1732 14.782C15.6831 15.1069 15.5198 15.7567 15.5198 16.3252C15.5198 17.8683 15.5198 19.3303 15.5198 20.8734C15.5198 22.4165 15.5198 23.6348 16.2549 24.6094C16.745 25.2592 17.4802 25.5841 18.2153 25.7465C19.0322 25.9089 19.9307 25.7465 20.7475 25.7465C22.4628 25.7465 24.0965 25.4216 25.4034 26.8836C26.7104 28.3455 26.3836 28.3455 26.8737 29.0764C27.3638 29.8074 27.9356 30.5384 28.6708 30.8632C28.9975 31.0257 29.3242 31.1069 29.651 31.0257C29.9777 30.9445 30.3044 30.782 30.4678 30.4572C30.7128 30.0511 30.4678 29.5638 30.3044 29.0764C30.0594 28.5079 29.8143 27.9394 29.5693 27.2896C29.4876 27.046 29.4059 26.8023 29.4876 26.5587C29.651 26.0714 30.3861 26.1526 30.7945 26.0714C31.2029 25.9902 31.7747 25.7465 31.9381 25.178C32.0198 24.9343 32.1015 24.6907 32.1015 24.3658L32.1831 24.5282Z" fill="url(#paint1_linear_25201_21669)"/>
<path d="M32.1831 24.5282C32.1831 24.2846 32.1831 24.0409 32.1831 23.716C32.1831 21.7668 32.1831 19.8176 32.1831 17.9495C32.1831 16.8125 32.1831 15.2693 30.9579 14.7008C30.4678 14.4572 29.9777 14.4572 29.4876 14.3759C27.1188 14.2135 24.8317 14.1323 22.4628 14.2135C20.094 14.2947 20.1757 14.2947 19.0322 14.3759C17.8886 14.4572 17.8886 14.5384 17.3168 14.5384C16.745 14.5384 16.5 14.5384 16.1732 14.782C15.6831 15.1069 15.5198 15.7567 15.5198 16.3252C15.5198 17.8683 15.5198 19.3303 15.5198 20.8734C15.5198 22.4165 15.5198 23.6348 16.2549 24.6094C16.745 25.2592 17.4802 25.5841 18.2153 25.7465C19.0322 25.9089 19.9307 25.7465 20.7475 25.7465C22.4628 25.7465 24.0965 25.4216 25.4034 26.8836C26.7104 28.3455 26.3836 28.3455 26.8737 29.0764C27.3638 29.8074 27.9356 30.5384 28.6708 30.8632C28.9975 31.0257 29.3242 31.1069 29.651 31.0257C29.9777 30.9445 30.3044 30.782 30.4678 30.4572C30.7128 30.0511 30.4678 29.5638 30.3044 29.0764C30.0594 28.5079 29.8143 27.9394 29.5693 27.2896C29.4876 27.046 29.4059 26.8023 29.4876 26.5587C29.651 26.0714 30.3861 26.1526 30.7945 26.0714C31.2029 25.9902 31.7747 25.7465 31.9381 25.178C32.0198 24.9343 32.1015 24.6907 32.1015 24.3658L32.1831 24.5282Z" stroke="black" stroke-linecap="round" stroke-linejoin="round"/>
</g>
<g id="Vector_2">
<path d="M18.8688 3.32966C18.8688 2.11138 18.6237 1.05555 17.0718 0.974327C12.4158 0.730672 7.6782 0.568235 3.02226 1.13676C2.53216 1.13676 1.96038 1.2992 1.55197 1.70529C1.22523 2.03016 1.06187 2.59869 1.06187 3.086C0.8985 4.71037 0.816817 6.25351 0.8985 7.87788C0.980183 9.50224 1.06187 9.50224 1.14355 10.3144C1.22523 11.1266 1.14355 11.6139 1.55197 12.1012C2.20543 12.9134 3.10395 12.4261 3.92078 12.5073C4.73761 12.5885 4.73761 12.8322 4.90097 13.2383C5.06434 13.7256 4.90097 14.2129 4.65593 14.619C4.41088 15.1875 4.16583 15.8373 3.92078 16.4058C3.75741 16.8119 3.59404 17.218 3.83909 17.5429C4.08414 17.9489 4.73761 18.0302 5.22771 17.8677C6.45296 17.4616 7.26979 16.487 8.08662 15.4312C8.57672 14.7814 9.06682 14.0505 9.72028 13.4819C10.3737 12.9134 11.1089 12.6698 12.1708 12.5885C14.1312 12.5073 16.0916 12.1824 17.9703 11.9388C18.2153 11.9388 18.5421 11.9388 18.7871 11.6951C19.0322 11.4515 19.0322 11.0454 19.0322 10.7205C19.0322 8.69006 18.9505 6.74082 18.8688 4.71037C18.7871 2.67991 18.8688 3.81697 18.8688 3.41087V3.32966Z" fill="url(#paint2_linear_25201_21669)"/>
<path d="M18.8688 3.32966C18.8688 2.11138 18.6237 1.05555 17.0718 0.974327C12.4158 0.730672 7.6782 0.568235 3.02226 1.13676C2.53216 1.13676 1.96038 1.2992 1.55197 1.70529C1.22523 2.03016 1.06187 2.59869 1.06187 3.086C0.8985 4.71037 0.816817 6.25351 0.8985 7.87788C0.980183 9.50224 1.06187 9.50224 1.14355 10.3144C1.22523 11.1266 1.14355 11.6139 1.55197 12.1012C2.20543 12.9134 3.10395 12.4261 3.92078 12.5073C4.73761 12.5885 4.73761 12.8322 4.90097 13.2383C5.06434 13.7256 4.90097 14.2129 4.65593 14.619C4.41088 15.1875 4.16583 15.8373 3.92078 16.4058C3.75741 16.8119 3.59404 17.218 3.83909 17.5429C4.08414 17.9489 4.73761 18.0302 5.22771 17.8677C6.45296 17.4616 7.26979 16.487 8.08662 15.4312C8.57672 14.7814 9.06682 14.0505 9.72028 13.4819C10.3737 12.9134 11.1089 12.6698 12.1708 12.5885C14.1312 12.5073 16.0916 12.1824 17.9703 11.9388C18.2153 11.9388 18.5421 11.9388 18.7871 11.6951C19.0322 11.4515 19.0322 11.0454 19.0322 10.7205C19.0322 8.69006 18.9505 6.74082 18.8688 4.71037C18.7871 2.67991 18.8688 3.81697 18.8688 3.41087V3.32966Z" fill="url(#paint3_linear_25201_21669)"/>
<path d="M18.8688 3.32966C18.8688 2.11138 18.6237 1.05555 17.0718 0.974327C12.4158 0.730672 7.6782 0.568235 3.02226 1.13676C2.53216 1.13676 1.96038 1.2992 1.55197 1.70529C1.22523 2.03016 1.06187 2.59869 1.06187 3.086C0.8985 4.71037 0.816817 6.25351 0.8985 7.87788C0.980183 9.50224 1.06187 9.50224 1.14355 10.3144C1.22523 11.1266 1.14355 11.6139 1.55197 12.1012C2.20543 12.9134 3.10395 12.4261 3.92078 12.5073C4.73761 12.5885 4.73761 12.8322 4.90097 13.2383C5.06434 13.7256 4.90097 14.2129 4.65593 14.619C4.41088 15.1875 4.16583 15.8373 3.92078 16.4058C3.75741 16.8119 3.59404 17.218 3.83909 17.5429C4.08414 17.9489 4.73761 18.0302 5.22771 17.8677C6.45296 17.4616 7.26979 16.487 8.08662 15.4312C8.57672 14.7814 9.06682 14.0505 9.72028 13.4819C10.3737 12.9134 11.1089 12.6698 12.1708 12.5885C14.1312 12.5073 16.0916 12.1824 17.9703 11.9388C18.2153 11.9388 18.5421 11.9388 18.7871 11.6951C19.0322 11.4515 19.0322 11.0454 19.0322 10.7205C19.0322 8.69006 18.9505 6.74082 18.8688 4.71037C18.7871 2.67991 18.8688 3.81697 18.8688 3.41087V3.32966Z" stroke="black" stroke-linecap="round" stroke-linejoin="round"/>
</g>
<path id="Vector_3" d="M21.4009 23.6346C21.9727 21.6854 22.5444 19.6549 23.3613 17.7057C23.5246 17.2184 23.7697 16.731 24.2598 16.4874C24.4232 16.3249 24.7499 16.2437 24.9133 16.4062C25.0766 16.4874 25.1583 16.731 25.24 16.9747C25.5667 19.0864 25.9751 21.198 26.2202 23.2285" stroke="black" stroke-linecap="round" stroke-linejoin="round"/>
<path id="Vector_4" d="M21.9727 21.6042C23.2796 21.3605 24.5865 21.2793 25.8934 21.2793" stroke="black" stroke-linecap="round" stroke-linejoin="round"/>
<path id="Vector_5" d="M8.74025 2.76172C8.41352 4.22365 7.84173 5.60436 7.0249 6.90385" stroke="black" stroke-linecap="round" stroke-linejoin="round"/>
<path id="Vector_6" d="M6.12622 3.98015C8.6584 3.81771 11.1906 3.65527 13.7228 3.65527" stroke="black" stroke-linecap="round" stroke-linejoin="round"/>
<path id="Vector_7" d="M7.43311 6.25391L12.9876 9.17776" stroke="black" stroke-linecap="round" stroke-linejoin="round"/>
<path id="Vector_8" d="M11.9258 3.73633C12.0892 5.36069 11.6808 7.06628 10.7823 8.44699C9.88375 9.8277 8.41345 10.8023 6.77979 11.2084C6.77979 11.2084 6.86147 11.2084 6.94315 11.1272" stroke="black" stroke-linecap="round" stroke-linejoin="round"/>
</g>
<defs>
<linearGradient id="paint0_linear_25201_21669" x1="23.8515" y1="14.1816" x2="23.8515" y2="31.0575" gradientUnits="userSpaceOnUse">
<stop stop-color="#C4C4C4"/>
<stop offset="1" stop-color="#484848"/>
</linearGradient>
<linearGradient id="paint1_linear_25201_21669" x1="34.9632" y1="36.8062" x2="10.7076" y2="35.6768" gradientUnits="userSpaceOnUse">
<stop offset="0.192708" stop-color="#FFA800"/>
<stop offset="0.473958" stop-color="#FFCB06"/>
<stop offset="1" stop-color="white"/>
</linearGradient>
<linearGradient id="paint2_linear_25201_21669" x1="9.94931" y1="0.750977" x2="9.94931" y2="17.9462" gradientUnits="userSpaceOnUse">
<stop stop-color="#C4C4C4"/>
<stop offset="1" stop-color="#484848"/>
</linearGradient>
<linearGradient id="paint3_linear_25201_21669" x1="1.49066" y1="-3.2158" x2="8.35902" y2="23.3187" gradientUnits="userSpaceOnUse">
<stop stop-color="#00FFFF"/>
<stop offset="0.685504" stop-color="#4E5EB3"/>
</linearGradient>
<clipPath id="clip0_25201_21669">
<rect width="33" height="32" fill="white"/>
</clipPath>
</defs>
</svg>
