<svg width="34" height="34" viewBox="0 0 34 34" fill="none" xmlns="http://www.w3.org/2000/svg">
<g id="block icon">
<path id="Vector" d="M21.3384 2.54502C21.6076 1.82586 21.9666 1.0168 22.7743 0.747109C23.4026 0.567318 24.1206 0.747108 24.6591 1.28648C25.1975 1.82586 25.377 2.45513 25.6463 3.08439C28.7875 11.7144 25.8258 22.5917 21.7871 30.5026C20.9794 31.9409 19.7229 33.559 18.1074 33.2893C17.1202 33.1095 16.4022 32.2106 16.0432 31.3116C14.8765 28.2552 17.0305 24.4796 15.3252 21.6928C14.338 20.0747 12.4533 19.4454 10.8378 18.5464C9.22236 17.6475 7.51714 16.2092 7.69664 14.3213C7.87613 12.2537 10.2993 11.175 12.3635 10.8154C12.3635 10.8154 17.5689 9.82657 18.2869 9.1973C19.9922 7.66908 20.5306 4.61262 21.3384 2.54502Z" fill="url(#paint0_linear_25201_660)" stroke="black" stroke-linecap="round" stroke-linejoin="round"/>
<path id="Vector_2" d="M24.3005 12.9716C24.9287 13.7807 23.044 15.219 22.5055 15.5786C21.4285 16.2978 20.172 16.7473 18.9156 16.8371C17.8386 17.0169 16.6719 16.927 15.5949 16.8371C14.5179 16.7473 14.5179 16.6574 13.9794 16.5675C13.4409 16.4776 13.3512 16.5675 13.1717 16.2978C12.9922 16.0281 13.0819 15.4887 12.9922 15.219C15.9539 12.9716 19.8131 11.9828 23.4927 12.6121C23.762 12.6121 24.0312 12.7019 24.2107 12.8817C24.2107 12.8817 24.2107 12.8817 24.3005 12.9716Z" fill="white" stroke="black" stroke-linecap="round" stroke-linejoin="round"/>
<path id="Vector_3" d="M19.722 14.5917C19.4527 14.6816 19.2733 14.9513 19.1835 15.221C19.0938 15.4907 19.2733 15.7603 19.5425 16.03C19.9912 16.03 21.9657 16.03 21.9657 15.4008C22.1452 14.5018 20.1707 14.4119 19.722 14.5917Z" fill="black" stroke="black" stroke-linecap="round" stroke-linejoin="round"/>
</g>
<defs>
<linearGradient id="paint0_linear_25201_660" x1="13.1719" y1="9.97195" x2="32.9727" y2="21.6682" gradientUnits="userSpaceOnUse">
<stop stop-color="#5BE3AB"/>
<stop offset="0.79" stop-color="#1D8BE1"/>
</linearGradient>
</defs>
</svg>
