<svg width="34" height="34" viewBox="0 0 34 34" fill="none" xmlns="http://www.w3.org/2000/svg">
<g id="block icon">
<path id="Vector" d="M8.43447 5.77443C8.80852 4.2384 9.78105 3.43376 11.9505 4.45778C13.5964 5.26237 15.0926 6.21325 16.4391 7.38356C17.1124 7.96872 17.7857 8.62702 18.6834 8.62702C19.5063 8.62702 20.1796 8.11501 20.8529 7.67614C22.3491 6.65212 24.0697 5.99382 25.7904 5.55495C26.6881 5.33552 27.7354 5.18923 28.6331 5.40866C29.5309 5.62809 30.5034 6.14011 30.8026 7.01784C31.1019 7.82243 31.0271 8.70016 30.8026 9.50475C30.1293 12.3574 28.6331 14.9906 26.6133 17.1118C24.5186 19.3793 25.94 21.5004 26.5385 24.1336C26.9125 25.816 26.5385 27.864 25.0423 28.6686C24.0697 29.1806 22.8728 29.0343 21.8254 28.6686C18.6834 27.4983 16.0651 23.8411 12.4742 23.8411C10.2299 23.8411 6.4146 26.6937 4.39474 24.3531C3.79626 23.6216 3.94588 22.5245 4.39474 21.7199C4.99322 20.5496 5.96574 19.3061 6.71384 18.2821C7.46194 17.2581 8.88333 16.3072 9.25738 14.8443C9.55662 13.674 9.03295 12.5037 8.73371 11.4065C8.35966 10.163 7.98561 7.5299 8.43447 5.77443Z" fill="url(#paint0_linear_25201_14)" stroke="black" stroke-linecap="round" stroke-linejoin="round"/>
<path id="Vector_2" d="M22.7556 14.8389C23.2227 15.5656 21.5317 16.6326 21.0523 16.8943C20.0937 17.4178 19.434 17.652 18.1689 17.7489C17.2507 17.8192 16.115 17.8388 15.217 17.6825C14.3191 17.5263 13.9759 17.4431 13.5303 17.3272C11.9798 16.7252 13.0877 15.8795 13.0877 15.8795C15.7442 14.2136 19.06 13.6719 22.104 14.4763C22.3302 14.4964 22.5496 14.5921 22.6869 14.7566C22.6869 14.7566 22.6869 14.7566 22.7556 14.8389Z" fill="white" stroke="black" stroke-linecap="round" stroke-linejoin="round"/>
<path id="Vector_3" d="M19.4533 14.9C19.2833 14.9716 19.152 15.2203 19.0749 15.4738C18.9977 15.7274 19.0829 15.9954 19.2222 16.2682C19.8508 16.9054 20.6832 16.3986 20.737 15.7957C20.9221 14.9442 19.7393 14.7519 19.4533 14.9Z" fill="black" stroke="black" stroke-linecap="round" stroke-linejoin="round"/>
</g>
<defs>
<linearGradient id="paint0_linear_25201_14" x1="6.94053" y1="6.21954" x2="28.0252" y2="31.4175" gradientUnits="userSpaceOnUse">
<stop offset="0.18" stop-color="#FCEE21"/>
<stop offset="0.22" stop-color="#FBE027"/>
<stop offset="0.28" stop-color="#F8BC36"/>
<stop offset="0.37" stop-color="#F4824F"/>
<stop offset="0.5" stop-color="#AB1EED"/>
<stop offset="0.88" stop-color="#3DC6DD"/>
<stop offset="1" stop-color="#00FFFF"/>
</linearGradient>
</defs>
</svg>
