<svg width="34" height="24" viewBox="0 0 34 24" fill="none" xmlns="http://www.w3.org/2000/svg">
<g id="uuid-6fbeed80-2097-4bb0-8d1c-e40cc2f0a426" clip-path="url(#clip0_25201_3541)">
<path id="Vector" d="M14.2922 1.34193C13.5106 0.887181 12.5615 0.716652 11.5007 0.944024C9.93748 1.34193 8.65341 2.81985 8.54175 4.46829C7.25768 3.21775 5.13617 3.21775 3.62878 4.12724C2.12139 5.03673 1.17229 6.74202 0.781489 8.50415C0.558172 9.52733 0.502343 10.5505 0.72566 11.5737C1.28395 14.1885 3.51712 16.0643 5.63863 17.6559C7.09019 18.7927 8.54175 19.9296 10.0491 21.0665C11.5565 22.2033 11.5565 22.2602 11.5565 22.2602C12.059 22.3739 13.0959 22.2602 14.3619 21.0665C16.4137 19.132 17.0836 17.258 17.6977 14.6432C18.4235 11.5168 18.3119 8.21994 17.3069 5.15041C16.302 2.08089 15.2412 2.0449 14.2922 1.34193Z" fill="url(#paint0_linear_25201_3541)" stroke="black" stroke-linecap="round" stroke-linejoin="round"/>
<path id="Vector_2" d="M19.7005 2.24549C20.4821 1.79075 21.4312 1.62022 22.492 1.84759C24.0552 2.24549 25.3393 3.72341 25.4509 5.37186C26.735 4.12131 28.8565 4.12131 30.3639 5.0308C31.8713 5.94029 32.8204 7.70243 33.2112 9.46456C33.4345 10.4877 33.4903 11.5109 33.267 12.5341C32.7087 15.1489 30.4756 17.0247 28.3541 18.6163C26.9025 19.7532 25.4509 20.89 23.9436 22.0269C22.4362 23.1637 22.9386 23.1069 22.4362 23.2206C21.9337 23.3343 21.1035 22.9948 20.2588 22.3679C18.1931 20.7195 16.9091 18.2184 16.2949 15.6036C15.5692 12.4772 15.6808 9.18035 16.6858 6.11082C17.6907 3.04129 18.1931 2.98445 19.5889 2.18865L19.7005 2.24549Z" fill="url(#paint1_linear_25201_3541)" stroke="black" stroke-linecap="round" stroke-linejoin="round"/>
<g id="Group">
<path id="Vector_3" d="M22.0527 13.1082C22.8343 12.9377 23.5601 12.5398 24.1742 12.0282C24.1742 12.0282 24.2858 11.9145 24.2858 11.8576C24.2858 11.8008 24.1742 11.744 24.1184 11.6871C22.9459 11.1187 21.7735 10.4366 20.5453 10.0955C19.317 9.75444 17.9771 9.64076 16.7489 9.18601C16.5256 9.12917 16.3023 9.01548 16.1348 9.18601C16.0231 9.35654 16.0789 9.58391 16.1348 9.75444C16.3581 10.2092 16.5814 10.6639 16.8606 11.1187C17.1397 11.5734 17.363 11.8576 17.8097 12.1987C18.8146 12.9945 19.8195 13.3924 21.0478 13.2787C22.276 13.165 21.6619 13.2219 21.9968 13.1082H22.0527Z" fill="white" stroke="black" stroke-linecap="round" stroke-linejoin="round"/>
<path id="Vector_4" d="M19.3728 10.266C19.1494 10.266 18.982 10.3797 18.8145 10.5502C18.4237 10.9481 19.1495 11.5165 19.4844 11.6302C19.9311 11.8007 21.0476 11.6302 20.601 10.8913C20.1544 10.1523 19.8194 10.2091 19.3728 10.266Z" fill="black" stroke="black" stroke-linecap="round" stroke-linejoin="round"/>
<path id="Vector_5" d="M16.8047 9.18633C14.8506 8.78843 13.6782 6.9126 13.9574 4.9231" stroke="black" stroke-linecap="round" stroke-linejoin="round"/>
<path id="Vector_6" d="M18.3121 9.58426C17.2514 8.95898 16.5256 7.87897 16.8047 6.62842" stroke="black" stroke-linecap="round" stroke-linejoin="round"/>
<path id="Vector_7" d="M20.0986 9.92567C19.5961 9.47092 19.2612 8.78881 19.2053 8.10669" stroke="black" stroke-linecap="round" stroke-linejoin="round"/>
<path id="Vector_8" d="M22.1643 10.6642C21.8294 10.2663 21.606 9.75475 21.4944 9.24316" stroke="black" stroke-linecap="round" stroke-linejoin="round"/>
</g>
<path id="Vector_9" d="M13.8455 10.153C14.2363 10.6646 13.0639 11.5741 12.7289 11.8015C12.059 12.2562 11.2774 12.5404 10.4958 12.5973C9.82581 12.711 9.10003 12.6541 8.43008 12.5973C7.76013 12.5404 7.76013 12.4836 7.42516 12.4267C7.09018 12.3699 7.03435 12.4267 6.92269 12.2562C6.81104 12.0857 6.86686 11.7446 6.81104 11.5741C8.6534 10.153 11.0541 9.52774 13.3431 9.92564C13.5105 9.92564 13.678 9.98249 13.7897 10.0962C13.7897 10.0962 13.7897 10.0962 13.8455 10.153Z" fill="white" stroke="black" stroke-linecap="round" stroke-linejoin="round"/>
<path id="Vector_10" d="M11.5007 10.5503C11.2215 10.7208 10.9982 11.0619 11.054 11.403C11.389 11.403 12.7289 11.5735 12.8406 11.0619C12.9522 10.4935 11.7798 10.4366 11.5007 10.5503Z" fill="black" stroke="black" stroke-linecap="round" stroke-linejoin="round"/>
</g>
<defs>
<linearGradient id="paint0_linear_25201_3541" x1="14.9231" y1="25.2666" x2="-2.28012" y2="2.88315" gradientUnits="userSpaceOnUse">
<stop offset="0.276042" stop-color="#E950C9"/>
<stop offset="1" stop-color="#FFEBFB"/>
</linearGradient>
<linearGradient id="paint1_linear_25201_3541" x1="30.1672" y1="26.2205" x2="12.9195" y2="3.82524" gradientUnits="userSpaceOnUse">
<stop offset="0.276042" stop-color="#E950C9"/>
<stop offset="1" stop-color="#FFEBFB"/>
</linearGradient>
<clipPath id="clip0_25201_3541">
<rect width="34" height="23.4762" fill="white" transform="translate(0 0.261963)"/>
</clipPath>
</defs>
</svg>
