<svg width="34" height="34" viewBox="0 0 34 34" fill="none" xmlns="http://www.w3.org/2000/svg">
<g id="block icon">
<path id="Vector" d="M11.8286 1.97542C10.4111 2.11207 9.12861 3.06859 8.58861 4.36672C8.11611 5.39157 7.71094 6.41653 7.71094 7.5097C7.71094 10.0377 7.98111 12.7705 9.06111 14.9568C9.60111 16.05 10.4111 17.0065 11.2211 17.963C11.8286 18.7146 12.5036 19.4661 13.3811 19.7394C14.2586 20.0127 15.9461 20.4227 16.8911 20.4911C17.7686 20.4911 17.7686 20.2177 18.6461 20.081C19.5911 19.876 20.3336 19.1928 21.2786 18.8512C22.0886 18.5779 22.9661 18.5779 23.7761 18.168C24.7211 17.758 25.3286 16.8698 25.8686 15.9816C26.7461 14.6835 27.6236 13.317 27.7586 11.8139C27.8261 10.7208 26.5434 9.55939 26.2734 8.53454C25.8684 6.82647 26.0034 4.77666 24.9234 3.4102C23.8434 2.04374 22.8311 1.15554 21.2111 1.0189C19.6586 0.882253 18.1061 1.49716 16.8911 2.522C15.6761 3.54685 16.1486 3.61517 15.4061 3.4102C14.6636 3.20523 14.4611 2.59033 13.9211 2.38536C13.2461 2.11207 12.5711 1.97542 11.8286 2.04374V1.97542Z" fill="url(#paint0_linear_25201_11078)"/>
<path id="Vector_2" d="M15.4075 32.6515C14.7325 32.4466 13.99 32.6515 13.2475 32.6515C12.505 32.6515 11.695 32.5149 11.29 31.8317C11.0875 31.49 11.0875 31.0118 11.0875 30.6018C11.0875 29.2354 11.0875 27.8689 10.75 26.5025C10.4125 25.136 9.805 23.9062 8.86 22.8813C8.05 22.0615 7.105 21.5149 6.295 20.7633C4.7425 19.2602 4 16.9372 4 14.7509C4 12.8379 4.4725 10.9931 5.1475 9.28507C5.485 8.53352 6.4975 6.00557 7.645 6.89377C7.9825 7.16706 7.9825 7.64532 7.9825 8.12358C7.9825 9.69501 7.78 11.3348 8.05 12.9062C8.32 14.4776 9.1975 16.049 10.615 16.7323C10.48 15.9807 10.345 15.2292 10.6825 14.5459C11.02 13.8627 12.0325 13.5211 12.505 14.136C12.8425 14.4776 12.775 15.0242 12.8425 15.5025C13.1125 17.0056 14.7325 17.8938 15.1375 19.3286C15.4075 20.1484 15.1375 21.0366 15.1375 21.8565C14.8 25.4776 16.3525 29.2354 15.205 32.7199L15.4075 32.6515Z" fill="#FCE72C" stroke="#231F20" stroke-linecap="round" stroke-linejoin="round"/>
<path id="Vector_3" d="M7.77734 6.89325C7.77734 6.61996 7.84484 6.41499 7.91234 6.1417C8.18234 5.18517 8.58734 4.29697 9.26234 3.61375C10.1398 2.72555 11.3548 2.17896 12.5698 2.31561C13.7848 2.45225 14.9323 3.27213 15.2698 4.50194C15.8773 2.86219 17.3623 1.56406 19.0498 1.15412C20.7373 0.74418 22.5598 1.29076 23.8423 2.52058C24.7873 3.4771 25.7323 4.77524 25.9348 6.1417C25.9348 6.41499 25.9348 6.68828 25.9348 6.96157C25.9348 7.02989 25.9348 7.16654 25.9348 7.23486" stroke="#231F20" stroke-linecap="round" stroke-linejoin="round"/>
<path id="Vector_4" d="M15.2695 19.1209C15.4045 19.5308 15.6745 19.9408 16.012 20.214C16.3495 20.4873 16.822 20.624 17.227 20.5557C17.5645 20.5557 18.3745 19.2575 18.712 18.7109" stroke="#231F20" stroke-linecap="round" stroke-linejoin="round"/>
<path id="Vector_5" d="M29.7149 14.6805C29.7149 16.8668 29.0399 19.1215 27.4874 20.6929C26.6774 21.4445 25.7324 21.9911 24.9224 22.8109C23.9774 23.7675 23.3699 25.0656 23.0324 26.4321C22.6949 27.7985 22.6274 29.165 22.6949 30.5314C22.6949 30.9414 22.6949 31.4196 22.4924 31.7612C22.1549 32.4445 21.2774 32.5811 20.5349 32.5811C19.7924 32.5811 19.0499 32.3762 18.3749 32.5811C17.2274 29.0967 18.7799 25.3389 18.4424 21.7178C18.3749 20.8979 18.1724 20.0097 18.4424 19.1898C18.4424 19.1215 18.4424 19.0532 18.5099 18.9849V18.8482C19.0499 17.6184 20.4674 16.7985 20.6699 15.4321C20.7374 14.9538 20.6699 14.4072 21.0074 14.0656C21.4799 13.519 22.4924 13.8606 22.8299 14.4755C23.1674 15.1588 23.0324 15.9103 22.8974 16.6619C24.3149 15.9786 25.1924 14.4072 25.4624 12.8358C25.7324 11.2644 25.5974 9.6246 25.4624 8.05317C25.4624 7.84821 25.4624 7.57491 25.4624 7.36995C25.4624 7.16498 25.5974 6.96001 25.7999 6.82336C26.9474 5.93516 27.9599 8.39479 28.2974 9.21467C28.9724 10.9227 29.4449 12.8358 29.4449 14.6805H29.7149Z" fill="#FCE72C" stroke="#231F20" stroke-linecap="round" stroke-linejoin="round"/>
</g>
<defs>
<linearGradient id="paint0_linear_25201_11078" x1="24.064" y1="23.1916" x2="9.6555" y2="-0.337518" gradientUnits="userSpaceOnUse">
<stop offset="0.276042" stop-color="#E950C9"/>
<stop offset="1" stop-color="#FFEBFB"/>
</linearGradient>
</defs>
</svg>
