<svg width="34" height="34" viewBox="0 0 34 34" fill="none" xmlns="http://www.w3.org/2000/svg">
<g id="block icon">
<path id="Vector" d="M15.9412 31.2569C15.7638 32.059 15.4089 32.8611 14.6992 33.2176C14.0781 33.4849 13.3684 33.2176 12.8361 32.8611C12.3038 32.5046 12.0377 31.7916 11.6828 31.2569C7.77929 22.9686 9.64233 12.0066 12.9248 3.80741C13.5459 2.29234 14.6104 0.509909 16.2961 0.688152C17.2719 0.688152 18.0704 1.57937 18.514 2.47059C19.9334 5.4116 18.1591 9.33296 20.1109 11.9175C21.1755 13.3434 23.1272 13.8782 24.8128 14.5911C26.4984 15.3041 28.2728 16.6409 28.2728 18.4234C28.2728 20.4732 25.9661 21.81 24.0144 22.2556C24.0144 22.2556 18.9575 23.6816 18.3365 24.3945C16.8284 25.9987 16.5622 29.118 15.9412 31.2569Z" fill="url(#paint0_linear_25201_17781)" stroke="black" stroke-linecap="round" stroke-linejoin="round"/>
<path id="Vector_2" d="M18.604 19.2242C19.8461 18.9568 20.9994 18.333 21.9752 17.5309C21.9752 17.5309 22.1527 17.3526 22.1527 17.2635C22.1527 17.1744 21.9752 17.0853 21.8865 16.9962C20.0235 16.1049 18.1604 15.0355 16.2087 14.5007C14.2569 13.966 12.1277 13.7878 10.176 13.0748C9.82111 12.9857 9.46625 12.8074 9.2001 13.0748C9.02266 13.3422 9.11138 13.6987 9.2001 13.966C9.55496 14.679 9.90982 15.392 10.3534 16.1049C10.797 16.8179 11.1519 17.2635 11.8616 17.7983C13.4585 19.046 15.0554 19.6698 17.0071 19.4916C18.9589 19.3133 17.983 19.4024 18.5153 19.2242H18.604Z" fill="white" stroke="black" stroke-linecap="round" stroke-linejoin="round"/>
<path id="Vector_3" d="M14.2575 14.7664C13.9026 14.7664 13.6364 14.9446 13.3703 15.212C12.7493 15.8358 13.9026 16.7271 14.4349 16.9053C15.1446 17.1727 16.9189 16.9053 16.2092 15.7467C15.4995 14.5881 14.9672 14.6773 14.2575 14.7664Z" fill="black" stroke="black" stroke-linecap="round" stroke-linejoin="round"/>
<path id="Vector_4" d="M10.2653 13.0748C7.1602 12.4509 5.29716 9.50988 5.74074 6.39062" stroke="black" stroke-linecap="round" stroke-linejoin="round"/>
<path id="Vector_5" d="M12.5689 13.6968C10.8833 12.7165 9.73003 11.0232 10.1736 9.0625" stroke="black" stroke-linecap="round" stroke-linejoin="round"/>
<path id="Vector_6" d="M15.4077 14.2347C14.6093 13.5217 14.077 12.4523 13.9883 11.3828" stroke="black" stroke-linecap="round" stroke-linejoin="round"/>
<path id="Vector_7" d="M18.6896 15.3921C18.1573 14.7683 17.8024 13.9662 17.625 13.1641" stroke="black" stroke-linecap="round" stroke-linejoin="round"/>
</g>
<defs>
<linearGradient id="paint0_linear_25201_17781" x1="24.809" y1="37.85" x2="-2.1775" y2="13.2032" gradientUnits="userSpaceOnUse">
<stop offset="0.276042" stop-color="#E950C9"/>
<stop offset="1" stop-color="#FFEBFB"/>
</linearGradient>
</defs>
</svg>
