<svg width="34" height="34" viewBox="0 0 34 34" fill="none" xmlns="http://www.w3.org/2000/svg">
<g id="block icon">
<path id="Vector" d="M12.1092 2.11594C12.5921 1.55797 13.3165 1 14.0409 1C14.9262 1 15.5702 1.7971 16.0531 2.51449C17.0994 4.1087 17.9848 5.86232 18.6287 7.69565C18.9506 8.57246 19.1921 9.6087 19.997 10.087C20.7214 10.5652 21.6872 10.4058 22.5726 10.3261C24.5043 10.1667 26.5165 10.3261 28.3677 10.9638C29.3336 11.2826 30.3799 11.6014 31.1043 12.3188C31.8287 13.0362 32.3921 13.9928 32.2311 15.029C32.1506 15.9058 31.5067 16.7029 30.8628 17.4203C28.6897 19.7319 25.8726 21.4855 22.7336 22.442C22.0897 22.6812 21.3653 22.8406 20.8823 23.3986C20.4799 23.8768 20.3189 24.4348 20.2384 24.9928C19.9165 26.3478 19.5945 27.7826 19.2726 29.1377C18.9506 30.3333 18.5482 31.7681 17.4214 32.3261C16.1336 32.9638 14.6043 32.2464 13.558 31.3696C10.5799 29.058 8.72869 25.5507 7.84332 21.8841C6.55552 16.6232 7.03844 11.0435 9.45308 6.18116C10.4354 4.20312 11.0628 3.31159 12.1092 2.11594Z" fill="url(#paint0_linear_25201_12135)" stroke="black" stroke-linecap="round" stroke-linejoin="round"/>
<path id="Vector_2" d="M24.503 15.4274C23.0542 18.2172 20.1567 20.21 17.0176 20.6085C13.8786 21.0071 10.5786 19.652 8.56641 17.2607C11.2225 17.4998 13.8786 17.5795 16.4542 17.0216C19.1103 16.4636 21.8469 15.5868 24.503 15.3477V15.4274Z" fill="white" stroke="black" stroke-linecap="round" stroke-linejoin="round"/>
<path id="Vector_3" d="M1 13.0352C2.85122 15.825 6.23171 17.4989 9.53171 17.4192C12.8317 17.3395 10.9805 17.1004 11.7854 17.1801C12.5902 17.2598 13.7171 17.3395 14.6829 17.2598C16.6146 17.1004 18.5463 16.6221 20.3171 15.825C21.6854 15.267 23.1341 14.7091 24.5829 15.1076" stroke="black" stroke-linecap="round" stroke-linejoin="round"/>
<path id="Vector_4" d="M8.19337 9.20312C7.19336 12.2031 7.19593 14.8696 8.7252 17.2609" stroke="black" stroke-linecap="round" stroke-linejoin="round"/>
<path id="Vector_5" d="M12.5898 17.7383C13.3142 18.6948 14.3606 19.4122 15.4874 19.731" stroke="black" stroke-width="2" stroke-linecap="round" stroke-linejoin="round"/>
<path id="Vector_6" d="M16.2923 19.2536C16.8557 19.0144 17.2581 18.3768 17.1776 17.8188C16.5337 17.8188 13.9581 17.5797 13.7167 18.3768C13.4752 19.1739 15.8094 19.4927 16.3728 19.2536H16.2923Z" fill="black" stroke="black" stroke-width="2" stroke-linecap="round" stroke-linejoin="round"/>
<path id="Vector_7" d="M3.73828 11.9219C4.78462 14.3132 6.87731 16.3059 9.37243 17.1827" stroke="black" stroke-linecap="round" stroke-linejoin="round"/>
<path id="Vector_8" d="M7.83984 12.1602C8.48375 13.9935 9.69106 15.6674 11.3813 16.8631" stroke="black" stroke-linecap="round" stroke-linejoin="round"/>
<path id="Vector_9" d="M12.1094 13.4336C12.8338 14.709 13.7191 15.9046 14.7655 16.8611" stroke="black" stroke-linecap="round" stroke-linejoin="round"/>
<path id="Vector_10" d="M15.8086 13.7539C16.211 14.7901 17.0159 15.667 17.9818 16.2249C17.9818 16.2249 17.9818 16.1452 17.9818 16.0655" stroke="black" stroke-linecap="round" stroke-linejoin="round"/>
</g>
<defs>
<linearGradient id="paint0_linear_25201_12135" x1="19.7036" y1="1" x2="19.7036" y2="32.5698" gradientUnits="userSpaceOnUse">
<stop stop-color="#C0317E"/>
<stop offset="0.0001" stop-color="#B93180"/>
<stop offset="1" stop-color="#652D91"/>
</linearGradient>
</defs>
</svg>
